<svg xmlns="http://www.w3.org/2000/svg" width="21.356" height="21.352" viewBox="0 0 21.356 21.352">
  <g id="Group_7024" data-name="Group 7024" transform="translate(5088.193 2596.146)">
    <g id="Group_7026" data-name="Group 7026" transform="translate(-5088.193 -2595.646)">
      <g id="Group_7021" data-name="Group 7021" transform="translate(0 0)">
        <g id="Group_7019" data-name="Group 7019" transform="translate(0 0)">
          <path id="Path_24935" data-name="Path 24935" d="M-9.437,0a1.535,1.535,0,0,0-1.535,1.535A1.535,1.535,0,0,0-9.437,3.07,1.535,1.535,0,0,0-7.9,1.535,1.535,1.535,0,0,0-9.437,0" transform="translate(10.972 17.781)" fill="#157efb"/>
          <path id="Path_24936" data-name="Path 24936" d="M-65.222-.9a9.16,9.16,0,0,0-2.8-.071,8.79,8.79,0,0,0-2.487.7h0a9,9,0,0,0-5.214,6.837,9,9,0,0,0,.564,4.776,1.679,1.679,0,0,1-.21,1.583,2.533,2.533,0,0,0-.426,1.864,2.5,2.5,0,0,0,.506,1.152q.315.307.651.589a2.481,2.481,0,0,0,.941.356,2.541,2.541,0,0,0,1.264-.116h0a2.511,2.511,0,0,0,.6-.309,1.674,1.674,0,0,1,1.582-.211,8.9,8.9,0,0,0,3.343.667,9.186,9.186,0,0,0,1.434-.1,8.974,8.974,0,0,0,7.536-7.7A8.985,8.985,0,0,0-65.222-.9" transform="translate(78.712 1.043)" fill="#197bff" stroke="#fff" stroke-linejoin="bevel" stroke-width="1"/>
        </g>
        <path id="Path_24940" data-name="Path 24940" d="M-39.277-78.554a6.4,6.4,0,0,1-6.388-6.388,6.4,6.4,0,0,1,6.388-6.387,6.4,6.4,0,0,1,6.387,6.387.531.531,0,0,1-.531.531h-5.856a.531.531,0,0,1-.531-.531.531.531,0,0,1,.531-.531h5.3a5.333,5.333,0,0,0-5.3-4.794A5.331,5.331,0,0,0-44.6-84.942a5.331,5.331,0,0,0,5.325,5.325,5.277,5.277,0,0,0,3.869-1.667.531.531,0,0,1,.751-.021.531.531,0,0,1,.021.751,6.329,6.329,0,0,1-4.641,2" transform="translate(51.143 93.924)" fill="#fff"/>
      </g>
    </g>
  </g>
</svg>
