<svg xmlns="http://www.w3.org/2000/svg" width="9.553" height="8.75" viewBox="0 0 9.553 8.75">
  <g id="iconfinder_icons_Message_1564513" transform="translate(0)">
    <path id="message" d="M7.96,1H1.592A1.6,1.6,0,0,0,0,2.592v3.98A1.6,1.6,0,0,0,1.592,8.164V9.358a.4.4,0,0,0,.677.279L3.741,8.164H7.96A1.6,1.6,0,0,0,9.552,6.572V2.592A1.6,1.6,0,0,0,7.96,1ZM5.572,5.776H3.184a.4.4,0,1,1,0-.8H5.572a.4.4,0,1,1,0,.8Zm.8-1.592H3.184a.376.376,0,0,1-.4-.4.376.376,0,0,1,.4-.4H6.368a.376.376,0,0,1,.4.4A.376.376,0,0,1,6.368,4.184Z" transform="translate(0 -1)" fill="#fff"/>
  </g>
</svg>
