<svg xmlns="http://www.w3.org/2000/svg" width="11.527" height="10.375" viewBox="0 0 11.527 10.375">
  <g id="Group_6988" data-name="Group 6988" transform="translate(0 0)">
    <path id="Path_27321" data-name="Path 27321" d="M191.8,200.124a2.228,2.228,0,1,1,1.751-.847A2.224,2.224,0,0,1,191.8,200.124Z" transform="translate(-184.697 -193.759)" fill="#fff"/>
    <path id="Path_27322" data-name="Path 27322" d="M146.168,274.561c.03.043.059.085.091.127a2.739,2.739,0,0,0,4.3,0c.033-.041.062-.085.092-.127a3.635,3.635,0,0,1,2.166,3.325v1.354H144v-1.354A3.636,3.636,0,0,1,146.168,274.561Z" transform="translate(-141.287 -268.866)" fill="#fff"/>
    <path id="Path_27323" data-name="Path 27323" d="M250.607,160.115a2.747,2.747,0,0,0,.029.38h-.007a2.252,2.252,0,1,1,2.107-3.046A2.739,2.739,0,0,0,250.607,160.115Z" transform="translate(-246.222 -155.991)" fill="#fff"/>
    <path id="Path_27324" data-name="Path 27324" d="M289.6,235.566c.03.043.059.085.091.127a2.723,2.723,0,0,0,2.147,1.04c.039,0,.078,0,.117-.007a2.735,2.735,0,0,0,.115.292,4.124,4.124,0,0,0-2.375,3.228h-2.263v-1.354A3.636,3.636,0,0,1,289.6,235.566Z" transform="translate(-287.428 -231.744)" fill="#fff"/>
  </g>
</svg>
