<svg xmlns="http://www.w3.org/2000/svg" width="10.246" height="9.11" viewBox="0 0 10.246 9.11">
  <path id="iconfinder_vector_65_05_473784" d="M10.246,13.178v1.774a1.538,1.538,0,0,1-.436.756,1.666,1.666,0,0,1-1.161.461H5.891v-.54a.416.416,0,0,0-.415-.415H4.771a.416.416,0,0,0-.415.415v.54H1.6a1.666,1.666,0,0,1-1.161-.461A1.535,1.535,0,0,1,0,14.952V13.178a.7.7,0,0,1,.7-.7H9.551A.7.7,0,0,1,10.246,13.178ZM5.476,17.123a.068.068,0,0,0,.067-.067V15.629a.068.068,0,0,0-.067-.067H4.771a.068.068,0,0,0-.067.067v1.428a.068.068,0,0,0,.067.067Zm4.575-1.165a2.012,2.012,0,0,1-1.4.558H5.891v.54a.416.416,0,0,1-.415.415H4.771a.416.416,0,0,1-.415-.415v-.54H1.6a2.012,2.012,0,0,1-1.4-.558,1.973,1.973,0,0,1-.2-.217v3.765a.7.7,0,0,0,.7.7H9.551a.7.7,0,0,0,.7-.7V15.741A1.967,1.967,0,0,1,10.051,15.959ZM6.727,11.3a.693.693,0,0,0-.492-.2H4.012a.7.7,0,0,0-.7.7v.348h.591v-.348a.1.1,0,0,1,.1-.1H6.235a.1.1,0,0,1,.1.1v.348H6.93v-.348A.694.694,0,0,0,6.727,11.3Z" transform="translate(-0.001 -11.092)" fill="#fff"/>
</svg>
