<svg id="Group_6722" data-name="Group 6722" xmlns="http://www.w3.org/2000/svg" viewBox="0 0 37.886 53.486">
  <defs>
    <style>
      .cls-1 {
        fill: #157efb;
      }
    </style>
  </defs>
  <path id="Path_24678" data-name="Path 24678" class="cls-1" d="M38.772,53.486H25.4a1.053,1.053,0,0,1-1.114-1.114V37.886H17.6V52.372a1.053,1.053,0,0,1-1.114,1.114H3.114A1.053,1.053,0,0,1,2,52.372V5.571A3.427,3.427,0,0,1,5.343,2.229H8.686V1.114A1.053,1.053,0,0,1,9.8,0H32.086A1.053,1.053,0,0,1,33.2,1.114V2.229h3.343a3.427,3.427,0,0,1,3.343,3.343v46.8A1.053,1.053,0,0,1,38.772,53.486ZM26.515,51.257H37.658V5.571a1.053,1.053,0,0,0-1.114-1.114H32.086a1.053,1.053,0,0,1-1.114-1.114V2.229H10.914V3.343A1.053,1.053,0,0,1,9.8,4.457H5.343A1.053,1.053,0,0,0,4.229,5.571V51.257H15.372V36.772a1.053,1.053,0,0,1,1.114-1.114H25.4a1.053,1.053,0,0,1,1.114,1.114Z" transform="translate(-2 0)"/>
</svg>
