<svg xmlns="http://www.w3.org/2000/svg" viewBox="0 0 16.054 10.74"><path data-name="Path 25076" d="M14.358 0H1.7A1.739 1.739 0 0 0 0 1.7v7.344a1.739 1.739 0 0 0 1.7 1.7h12.658a1.739 1.739 0 0 0 1.7-1.7V1.7a1.739 1.739 0 0 0-1.7-1.7zM10.74 2.035a.729.729 0 0 1 .678.678.729.729 0 0 1-.678.678.652.652 0 0 1-.678-.678.652.652 0 0 1 .678-.678zm-1.357 2.6a.729.729 0 0 1 .678.678.729.729 0 0 1-.678.678.652.652 0 0 1-.678-.678.729.729 0 0 1 .679-.678zm-1.357-2.6a.729.729 0 0 1 .678.678.729.729 0 0 1-.678.678.729.729 0 0 1-.678-.678.729.729 0 0 1 .679-.678zm-1.356 2.6a.729.729 0 0 1 .678.678.729.729 0 0 1-.678.678.652.652 0 0 1-.678-.678.729.729 0 0 1 .678-.678zm-1.357-2.6a.729.729 0 0 1 .678.678.652.652 0 0 1-.678.678.652.652 0 0 1-.678-.678.729.729 0 0 1 .679-.678zm-2.6 1.357a.652.652 0 0 1-.678-.678.652.652 0 0 1 .678-.678.6.6 0 0 1 .678.678.652.652 0 0 1-.678.678zm1.244 2.6c-.339 0-.565-.226-.565-.678a.729.729 0 0 1 .678-.678.729.729 0 0 1 .678.678.747.747 0 0 1-.791.678zm6.783 2.713H5.314a.729.729 0 0 1-.678-.678.729.729 0 0 1 .678-.678h5.314a.729.729 0 0 1 .678.678.566.566 0 0 1-.566.678zm1.244-2.713a.729.729 0 0 1-.678-.678.678.678 0 0 1 1.357 0 .6.6 0 0 1-.679.678zm1.357-2.6a.729.729 0 0 1-.678-.678.678.678 0 1 1 1.357 0 .652.652 0 0 1-.679.678z" fill="#9e9e9e"/></svg>