<svg xmlns="http://www.w3.org/2000/svg" viewBox="0 0 19.941 11.942"><defs><style>.cls-1{fill:#9e9e9e}</style><clipPath id="clip-path"><path id="Rectangle_3483" data-name="Rectangle 3483" class="cls-1" d="M0 0h19.941v11.942H0z"/></clipPath></defs><g id="Group_3286" data-name="Group 3286" transform="translate(-338.979 -477.379)"><g id="Group_3284" data-name="Group 3284" transform="translate(338.98 477.379)"><g id="Group_3285" data-name="Group 3285"><g id="Group_3284-2" data-name="Group 3284" clip-path="url(#clip-path)"><path id="Path_24721" data-name="Path 24721" class="cls-1" d="M9.971.6C6.17.6 2.726 2.681.181 6.06a.786.786 0 0 0 0 .94c2.544 3.384 5.994 5.465 9.795 5.465s7.251-2.081 9.795-5.46a.786.786 0 0 0 0-.941C17.222 2.681 13.777.6 9.971.6zm.275 10.11a4.184 4.184 0 1 1 3.9-3.9 4.185 4.185 0 0 1-3.9 3.9zm-.127-1.928A2.246 2.246 0 0 1 7.727 6.39a2.269 2.269 0 0 1 2.107-2.106 2.246 2.246 0 0 1 2.391 2.391 2.269 2.269 0 0 1-2.107 2.107zm0 0" transform="translate(-.024 -.569)"/></g></g></g></g></svg>