<svg xmlns="http://www.w3.org/2000/svg" viewBox="0 0 12.555 15.896">
  <defs>
    <style>
      .cls-1 {
        fill: #9e9e9e;
      }
    </style>
  </defs>
  <path id="Path_25367" data-name="Path 25367" class="cls-1" d="M11.6,1.65H7.948a1.65,1.65,0,0,0-3.3,0H1a.983.983,0,0,0-1,1,.983.983,0,0,0,1,1l.565,10.685A1.663,1.663,0,0,0,3.214,15.9H9.338a1.663,1.663,0,0,0,1.65-1.564l.565-10.685a.983.983,0,0,0,1-1A.923.923,0,0,0,11.6,1.65ZM5.3,12.6a.652.652,0,0,1-1.3,0V5.95a.652.652,0,1,1,1.3,0Zm3.3,0a.652.652,0,1,1-1.3,0V5.95a.652.652,0,1,1,1.3,0Z"/>
</svg>
