<svg xmlns="http://www.w3.org/2000/svg" x="0px" y="0px"
	 viewBox="0 0 14.9 14.9" style="enable-background:new 0 0 14.9 14.9;" xml:space="preserve">
<g transform="translate(113.102 -951.059) rotate(45)">
	<g transform="translate(604.485 749.485)">
		<path fill="#9E9E9E" d="M0.9,3.7h-4.5c-0.4,0-0.7-0.3-0.7-0.7c0,0,0-0.1,0-0.1c0-0.4,0.3-0.7,0.7-0.7
			c0,0,0.1,0,0.1,0h4.5c0.4,0,0.7,0.3,0.7,0.7c0,0,0,0.1,0,0.1C1.6,3.4,1.3,3.7,0.9,3.7C0.9,3.7,0.9,3.7,0.9,3.7z"/>
		<path fill="#9E9E9E" d="M-1.4,6c-0.4,0-0.7-0.3-0.7-0.7c0,0,0-0.1,0-0.1V0.7C-2.2,0.4-1.9,0-1.5,0c0,0,0.1,0,0.1,0
			C-1,0-0.7,0.3-0.6,0.7c0,0,0,0.1,0,0.1v4.5C-0.6,5.6-0.9,6-1.4,6C-1.3,6-1.4,6-1.4,6z"/>
	</g>
	<g id="icon_1_2" transform="translate(600 745)">
		<path fill="#9E9E9E" d="M3.1,15c-4.1,0-7.5-3.3-7.5-7.5S-1,0,3.1,0s7.5,3.3,7.5,7.5C10.6,11.6,7.2,14.9,3.1,15z
			 M3.1,1.5c-3.3,0-6,2.7-6,6s2.7,6,6,6s6-2.7,6-6C9.1,4.2,6.4,1.5,3.1,1.5L3.1,1.5z"/>
	</g>
</g>
</svg>
