<svg xmlns="http://www.w3.org/2000/svg" viewBox="0 0 19.756 19.598">
  <defs>
    <style>
      .cls-1 {
        fill: #9e9e9e;
      }
    </style>
  </defs>
  <g id="Group_4093" data-name="Group 4093" transform="translate(0.05 -0.05)">
    <path id="Path_24930" data-name="Path 24930" class="cls-1" d="M15.976,7.241,12.5,10.718a2.292,2.292,0,0,1-3.319,0L8.074,9.77l3-3a.961.961,0,0,0,0-1.264.961.961,0,0,0-1.264,0l-3,3L5.861,7.4a2.112,2.112,0,0,1,0-3.161L9.338.761a2.292,2.292,0,0,1,3.319,0l3.319,3.161A2.292,2.292,0,0,1,15.976,7.241Z" transform="translate(3.018 0)"/>
    <path id="Path_24931" data-name="Path 24931" class="cls-1" d="M10.776,12.5,7.3,15.976a2.292,2.292,0,0,1-3.319,0L.661,12.657a2.292,2.292,0,0,1,0-3.319L4.138,5.861a2.29,2.29,0,0,1,3.319,0l.948.948-2.845,3a.961.961,0,0,0,0,1.264,1.2,1.2,0,0,0,.632.316.821.821,0,0,0,.632-.316l3-3,.948.948A2.479,2.479,0,0,1,10.776,12.5Z" transform="translate(0 2.96)"/>
  </g>
</svg>
