<svg xmlns="http://www.w3.org/2000/svg" viewBox="0 0 18 18">
  <defs>
    <style>
      .cls-1 {
        fill: #9befa5;
      }
      .cls-2 {
        fill: #ffffff
      }
    </style>
  </defs>
  <circle id="Ellipse_587" data-name="Ellipse 587" class="cls-1" cx="9" cy="9" r="9"/>
  <path id="Path_25450" data-name="Path 25450" class="cls-2" d="M8.839,1.467,7.8.34a1.257,1.257,0,0,0-1.82,0L1.3,5.021a1.813,1.813,0,0,0-.347.52L0,8.574c-.087.433.26.78.607.607l3.034-.953a1.813,1.813,0,0,0,.52-.347L8.839,3.2A1.157,1.157,0,0,0,8.839,1.467Zm-1.647.52L2.858,6.321a.527.527,0,0,1-.693,0,.527.527,0,0,1,0-.693L6.5,1.293a.527.527,0,0,1,.693,0,.657.657,0,0,1,.173.347A.657.657,0,0,1,7.192,1.987Z" transform="translate(5 4)"/>

</svg>
