<svg xmlns="http://www.w3.org/2000/svg" xmlns:xlink="http://www.w3.org/1999/xlink" viewBox="0 0 30.457 21.574">
  <defs>
    <style>
      .cls-1 {
        clip-path: url(#clip-path);
      }

      .cls-2 {
        fill: #fff;
      }
    </style>
    <clipPath id="clip-path">
      <path id="Path_25318" data-name="Path 25318" d="M29.056,38.785v-8.63l8.249,4.315-8.249,4.315ZM47.14,28.632a7.044,7.044,0,0,0-1.206-3.046,4.31,4.31,0,0,0-3.046-1.269C38.638,24,32.229,24,32.229,24h0s-6.409,0-10.66.317a4.31,4.31,0,0,0-3.046,1.269,7.044,7.044,0,0,0-1.206,3.046A44.991,44.991,0,0,0,17,33.645v2.348a44.606,44.606,0,0,0,.317,4.949,7.044,7.044,0,0,0,1.206,3.046,5.217,5.217,0,0,0,3.363,1.333c2.411.19,10.343.254,10.343.254s6.409,0,10.66-.317a4.31,4.31,0,0,0,3.046-1.269,7.044,7.044,0,0,0,1.206-3.046,44.607,44.607,0,0,0,.317-4.949V33.645a44.991,44.991,0,0,0-.317-5.013Z" transform="translate(-17 -24)"/>
    </clipPath>
  </defs>
  <g id="Group_4926" data-name="Group 4926" transform="translate(-0.001 0)">
    <g id="Group_4925" data-name="Group 4925" class="cls-1" transform="translate(0 0)">
      <rect id="Rectangle_4078" data-name="Rectangle 4078" class="cls-2" width="36.803" height="27.92" transform="translate(-3.173 -3.173)"/>
    </g>
  </g>
</svg>
