<svg id="Group_6775" data-name="Group 6775" xmlns="http://www.w3.org/2000/svg" viewBox="0 0 414 64.691">
  <defs>
    <style>
      .cls-1, .cls-6 {
        fill: #fff;
      }

      .cls-2 {
        fill: #157efb;
      }

      .cls-3 {
        fill: #197bff;
      }

      .cls-4 {
        fill: #f9636c;
      }

      .cls-5 {
        fill: #f4f7fe;
        font-size: 9px;
        font-family: SegoeUI, Segoe UI;
      }

      .cls-6 {
        stroke: #fff;
      }
    </style>
  </defs>
  <path id="Path_25093" data-name="Path 25093" d="M0,0H414V64.691H0Z"/>
  <path id="if_menu-alt_134216" class="cls-1" d="M4,10H28a2,2,0,0,0,0-4H4a2,2,0,0,0,0,4Zm24,4H4a2,2,0,0,0,0,4H28a2,2,0,0,0,0-4Zm0,8H4a2,2,0,0,0,0,4H28a2,2,0,0,0,0-4Z" transform="translate(364 19)"/>
  <g id="Group_6599" data-name="Group 6599" transform="translate(0 -1)">
    <path id="Path_24935" data-name="Path 24935" class="cls-2" d="M-9.051,0a1.921,1.921,0,0,0-1.921,1.921A1.922,1.922,0,0,0-9.051,3.843,1.921,1.921,0,0,0-7.129,1.921,1.921,1.921,0,0,0-9.051,0" transform="translate(30.972 43.051)"/>
    <path id="Path_24936" data-name="Path 24936" class="cls-3" d="M-62.55-.86a11.468,11.468,0,0,0-3.5-.089,11,11,0,0,0-3.114.876h0A11.262,11.262,0,0,0-75.7,8.487a11.264,11.264,0,0,0,.706,5.979,2.1,2.1,0,0,1-.263,1.982,3.172,3.172,0,0,0-.534,2.334,3.125,3.125,0,0,0,.633,1.442q.395.385.815.738a3.106,3.106,0,0,0,1.177.446,3.182,3.182,0,0,0,1.583-.145h0a3.144,3.144,0,0,0,.751-.387,2.1,2.1,0,0,1,1.981-.264,11.144,11.144,0,0,0,4.185.835,11.5,11.5,0,0,0,1.795-.128,11.235,11.235,0,0,0,9.435-9.636A11.248,11.248,0,0,0-62.55-.86" transform="translate(99.438 21.834)"/>
    <path id="Path_24940" data-name="Path 24940" class="cls-1" d="M-37.668-75.336a8.006,8.006,0,0,1-8-8,8.006,8.006,0,0,1,8-8,8.006,8.006,0,0,1,8,8,.665.665,0,0,1-.665.665h-7.331a.665.665,0,0,1-.665-.665A.665.665,0,0,1-37.668-84h6.634a6.676,6.676,0,0,0-6.634-6,6.674,6.674,0,0,0-6.667,6.667,6.674,6.674,0,0,0,6.667,6.667,6.606,6.606,0,0,0,4.844-2.086.665.665,0,0,1,.94-.026.665.665,0,0,1,.026.94,7.924,7.924,0,0,1-5.81,2.5" transform="translate(72.523 115.369)"/>
  </g>
  <g id="Group_6613" data-name="Group 6613" transform="translate(-5.918)">
    <path id="Path_24925" data-name="Path 24925" class="cls-1" d="M20.128,16.606l-3.355-3.355A9.382,9.382,0,0,0,17.948,8.89,9.1,9.1,0,0,0,8.89,0,8.841,8.841,0,0,0,0,8.89a8.949,8.949,0,0,0,8.89,8.89,8.126,8.126,0,0,0,4.361-1.174l3.355,3.355a2.432,2.432,0,0,0,3.522,0A2.241,2.241,0,0,0,20.128,16.606ZM2.516,8.89a6.374,6.374,0,0,1,12.748,0A6.516,6.516,0,0,1,8.89,15.432,6.516,6.516,0,0,1,2.516,8.89Z" transform="translate(304.918 24)"/>
  </g>
  <g id="Group_6662" data-name="Group 6662" transform="translate(69)">
    <g id="Group_6610" data-name="Group 6610" transform="translate(-19)">
      <path id="Path_27157" data-name="Path 27157" class="cls-1" d="M17.768,0H2.1A2.152,2.152,0,0,0,0,2.1V12.871a2.152,2.152,0,0,0,2.1,2.1H17.768a2.152,2.152,0,0,0,2.1-2.1V2.1A2.152,2.152,0,0,0,17.768,0Zm-.7,4.057L11.612,7.695a2.8,2.8,0,0,1-3.358,0L2.8,4.057A1.042,1.042,0,0,1,2.658,2.8a.914.914,0,0,1,1.119-.28L9.234,6.3a1.271,1.271,0,0,0,1.4,0l5.456-3.777a.756.756,0,0,1,1.119.28A1.042,1.042,0,0,1,17.068,4.057Z" transform="translate(111 26.865)"/>
      <circle id="Ellipse_615" data-name="Ellipse 615" class="cls-4" cx="6.766" cy="6.766" r="6.766" transform="translate(124 21)"/>
      <text id="_1" data-name="1" class="cls-5" transform="translate(128 30.999)"><tspan x="0" y="0">1</tspan></text>
    </g>
    <g id="Group_6611" data-name="Group 6611" transform="translate(-18)">
      <path id="Path_24907" data-name="Path 24907" class="cls-1" d="M14.336,32a.8.8,0,0,1,.688,1.217,2.52,2.52,0,0,1-2.063,1.217A2.4,2.4,0,0,1,10.9,33.217.8.8,0,0,1,11.585,32Z" transform="translate(177.965 10.566)"/>
      <path id="Path_24906" data-name="Path 24906" class="cls-1" d="M15.571,13.851,14.46,12.158a1.9,1.9,0,0,1-.212-.582l-.37-5.767A6.2,6.2,0,0,0,8.217-.011a6.04,6.04,0,0,0-6.4,5.661l-.37,5.926a.8.8,0,0,1-.212.582L.122,13.9a1.2,1.2,0,0,0,1.005,1.852H14.46A1.27,1.27,0,0,0,15.571,13.851Z" transform="translate(183.079 25.646)"/>
      <path id="Path_24907-2" data-name="Path 24907" class="cls-1" d="M14.336,32a.8.8,0,0,1,.688,1.217,2.52,2.52,0,0,1-2.063,1.217A2.4,2.4,0,0,1,10.9,33.217.8.8,0,0,1,11.585,32Z" transform="translate(177.965 10.566)"/>
      <circle id="Ellipse_619" data-name="Ellipse 619" class="cls-4" cx="6.766" cy="6.766" r="6.766" transform="translate(191 21)"/>
      <text id="_1-2" data-name="1" class="cls-5" transform="translate(195 30.999)"><tspan x="0" y="0">1</tspan></text>
    </g>
  </g>
  <g id="Group_6774" data-name="Group 6774" transform="translate(-27.822 17)">
    <g id="if_icon-compose_211654_1_" data-name="if_icon-compose_211654 (1)" transform="translate(124.898 7)">
      <path id="Path_27280" data-name="Path 27280" class="cls-6" d="M360.126,65.944l-1.64-1.64a.961.961,0,0,0-1.354,0l-2.262,2.254,2.872,3.021,2.385-2.275A.967.967,0,0,0,360.126,65.944Z" transform="translate(-339.69 -64.025)"/>
      <g id="Group_6773" data-name="Group 6773" transform="translate(5.179 2.507)">
        <path id="Path_27281" data-name="Path 27281" class="cls-6" d="M170.04,110.5l-9.279,9.576L160,123.529l3.453-.761,9.528-9.333Z" transform="translate(-160 -110.5)"/>
      </g>
      <path id="Path_27282" data-name="Path 27282" class="cls-1" d="M81.264,103.765v8.959a.531.531,0,0,1-.5.545l-14.512-.005a.561.561,0,0,1-.529-.539V98.266a.574.574,0,0,1,.572-.539h8.927L76.952,96H65.262A1.253,1.253,0,0,0,64,97.257v16.471a1.264,1.264,0,0,0,1.262,1.262H81.733a1.259,1.259,0,0,0,1.257-1.262V102.039Z" transform="translate(-64 -94.275)"/>
    </g>
  </g>
</svg>
